<svg xmlns="http://www.w3.org/2000/svg" width="400" height="400">
  <g fill-rule="evenodd">
    <path fill="#251d25"
      d="M317 46c-.136.22-1.362.406-2.724.413-2.736.014-3.374.344-4.624 2.394-.91 1.493-1.218 5.719-.452 6.193.22.136.4.867.4 1.624 0 .757.18 1.376.4 1.376.22 0 .4.72.4 1.6 0 .88.18 1.6.4 1.6.22 0 .4.619.4 1.376 0 .757.18 1.488.4 1.624.22.136.4.856.4 1.6 0 .744.18 1.464.4 1.6.22.136.4.766.4 1.4 0 .634.18 1.264.4 1.4.22.136.4.867.4 1.624 0 .757.18 1.376.4 1.376.22 0 .4.63.4 1.4 0 .77.18 1.4.4 1.4.22 0 .4.72.4 1.6 0 .88.18 1.6.4 1.6.22 0 .4.72.4 1.6 0 .88.18 1.6.4 1.6.22 0 .4.619.4 1.376 0 .757.18 1.488.4 1.624.22.136.4 1.126.4 2.2 0 1.074-.18 2.064-.4 2.2-.22.136-.4 1.767-.4 3.624 0 1.984-.165 3.376-.4 3.376-.226 0-.4 1.133-.4 2.6s-.174 2.6-.4 2.6c-.22 0-.4.9-.4 2s-.18 2-.4 2c-.22 0-.4.799-.4 1.776s-.18 1.888-.4 2.024c-.22.136-.4.856-.4 1.6 0 .744-.18 1.464-.4 1.6-.22.136-.4.867-.4 1.624 0 .757-.16 1.376-.356 1.376-.196 0-.466.63-.6 1.4l-.488 2.8c-.134.77-.404 1.4-.6 1.4-.196 0-.356.54-.356 1.2 0 .66-.16 1.2-.355 1.2-.195 0-.456.495-.581 1.1-.694 3.361-1.259 5.3-1.543 5.3-.177 0-.321.45-.321 1s-.18 1-.4 1c-.22 0-.4.439-.4.976 0 .537-.18 1.088-.4 1.224-.22.136-.4.597-.4 1.024 0 .427-.18.776-.4.776-.22 0-.4.36-.4.8 0 .44-.18.8-.4.8-.22 0-.4.54-.4 1.2 0 .66-.18 1.2-.4 1.2-.22 0-.4.36-.4.8 0 .44-.146.8-.325.8-.179 0-.573.63-.875 1.4-.302.77-.696 1.4-.875 1.4-.179 0-.325.36-.325.8 0 .44-.18.8-.4.8-.22 0-.4.36-.4.8 0 .44-.18.8-.4.8-.22 0-.4.36-.4.8 0 .44-.18.8-.4.8-.22 0-.4.36-.4.8 0 .44-.18.8-.4.8-.22 0-.4.36-.4.8 0 .44-.18.8-.4.8-.22 0-.4.278-.4.617 0 .339-.36 1.003-.8 1.475-.44.472-.8 1.095-.8 1.383 0 .289-.18.525-.4.525-.22 0-.4.36-.4.8 0 .44-.141.8-.314.8-.173 0-.848.989-1.5 2.199-.652 1.209-1.321 2.199-1.486 2.2-.165 0-.3.321-.3.713 0 .391-.36.971-.8 1.288-.44.317-.8.857-.8 1.2 0 .343-.36.883-.8 1.2-.44.317-.8.825-.8 1.128 0 .303-.54 1.055-1.2 1.672-.66.617-1.2 1.316-1.2 1.554s-.436.93-.969 1.539c-3.11 3.552-3.831 4.43-3.831 4.669 0 .145-.629.894-1.399 1.663-.769.769-1.714 1.888-2.1 2.487a25.716 25.716 0 0 1-1.501 2.054C274.218 185.878 257.783 202 257.417 202c-.117 0-1.132.9-2.256 2-1.123 1.1-2.222 2-2.441 2-.219 0-.878.513-1.465 1.141-.586.627-1.603 1.422-2.26 1.766-.657.344-1.592 1-2.078 1.459-.486.459-1.026.837-1.2.841-.296.007-1.51.933-4.056 3.093-.584.494-1.246.899-1.473.9-.226 0-.671.36-.988.8-.317.44-.857.8-1.2.8-.343 0-.883.36-1.2.8-.317.44-.814.8-1.105.8-.291 0-.915.36-1.387.8-.472.44-1.095.8-1.383.8-.289 0-.525.18-.525.4 0 .22-.32.4-.712.4-.391 0-.971.36-1.288.8-.317.44-.897.8-1.288.8-.392 0-.712.18-.712.4 0 .22-.27.4-.6.4-.33 0-.6.18-.6.4 0 .22-.255.4-.567.4-.311 0-.626.135-.7.3-.073.165-1.615 1.02-3.427 1.9-1.811.88-3.296 1.735-3.3 1.9-.003.165-.366.3-.806.3-.44 0-.8.18-.8.4 0 .22-.36.4-.8.4-.44 0-.8.18-.8.4 0 .22-.36.4-.8.4-.44 0-.8.18-.8.4 0 .22-.36.4-.8.4-.44 0-.8.18-.8.4 0 .22-.36.4-.8.4-.44 0-.8.146-.8.325 0 .179-.63.573-1.4.875-.77.302-1.4.696-1.4.875 0 .179-.36.325-.8.325-.44 0-.8.18-.8.4 0 .22-.349.4-.776.4-.427 0-.888.18-1.024.4-.136.22-.687.4-1.224.4-.537 0-.976.18-.976.4 0 .22-.36.4-.8.4-.44 0-.8.18-.8.4 0 .22-.36.4-.8.4-.44 0-.8.18-.8.4 0 .22-.45.4-1 .4s-1 .18-1 .4c0 .22-.45.4-1 .4s-1 .18-1 .4c0 .22-.349.4-.776.4-.427 0-.888.18-1.024.4-.136.22-.597.4-1.024.4-.427 0-.776.144-.776.321 0 .176-1.179.657-2.62 1.069-1.44.412-2.711.898-2.823 1.08-.112.181-.633.33-1.157.33s-1.064.18-1.2.4c-.136.22-.597.4-1.024.4-.427 0-.776.18-.776.4 0 .22-.362.4-.805.4-.443 0-1.118.159-1.5.353-.382.195-1.235.576-1.895.847-.66.271-1.513.652-1.895.847-.382.194-1.057.353-1.5.353-.443 0-.805.18-.805.4 0 .22-.54.4-1.2.4-.66 0-1.2.18-1.2.4 0 .22-.54.4-1.2.4-.66 0-1.2.18-1.2.4 0 .22-.349.4-.776.4-.427 0-.888.18-1.024.4-.136.22-.687.4-1.224.4-.537 0-.976.18-.976.4 0 .22-.54.4-1.2.4-.66 0-1.2.18-1.2.4 0 .22-.54.4-1.2.4-.66 0-1.2.18-1.2.4 0 .22-.529.4-1.176.4-.647 0-1.288.18-1.424.4-.136.22-.676.4-1.2.4-.524 0-1.064.18-1.2.4-.136.22-.777.4-1.424.4-.647 0-1.176.18-1.176.4 0 .22-.54.4-1.2.4-.66 0-1.2.18-1.2.4 0 .22-.63.4-1.4.4-.77 0-1.4.18-1.4.4 0 .22-.63.4-1.4.4-.77 0-1.4.18-1.4.4 0 .22-.63.4-1.4.4-.77 0-1.4.15-1.4.334 0 .3-2.762.911-6.903 1.527-.826.123-1.602.384-1.723.581-.122.197-.931.358-1.798.358s-1.576.18-1.576.4c0 .22-.684.4-1.52.4s-1.691.162-1.9.359c-.353.333-1.164.489-5.68 1.094-.935.125-1.7.389-1.7.587 0 .198-.979.36-2.176.36s-2.288.18-2.424.4c-.136.22-1.227.4-2.424.4-1.197 0-2.176.18-2.176.4 0 .222-1.067.4-2.4.4s-2.4.178-2.4.4c0 .233-1.325.4-3.176.4-1.747 0-3.288.18-3.424.4-.138.223-2.004.4-4.224.4-2.384 0-3.976.16-3.976.4 0 .258-4.467.4-12.6.4s-12.6-.142-12.6-.4c0-.237-1.467-.4-3.6-.4s-3.6-.163-3.6-.4c0-.222-1.059-.4-2.376-.4-1.307 0-2.488-.18-2.624-.4-.136-.22-1.036-.4-2-.4s-1.864-.18-2-.4c-.136-.22-.957-.4-1.824-.4-.867 0-1.576-.18-1.576-.4 0-.22-.54-.4-1.2-.4-.66 0-1.2-.18-1.2-.4 0-.22-.529-.4-1.176-.4-.647 0-1.288-.18-1.424-.4-.136-.22-.599-.4-1.029-.4a3.8 3.8 0 0 1-1.476-.362c-2.966-1.543-7.108-3.238-7.916-3.238-.539 0-.979-.18-.979-.4 0-.22-.63-.4-1.4-.4-.77 0-1.4.18-1.4.4 0 .22-.341.4-.758.4-.944 0-3.242 2.098-3.242 2.96 0 .352-.18.64-.4.64-.22 0-.4.36-.4.8 0 .44-.18.8-.4.8-.22 0-.4.36-.4.8 0 .44-.18.8-.4.8-.22 0-.4.36-.4.8 0 .44-.18.8-.4.8-.22 0-.4.36-.4.8 0 .44-.18.8-.4.8-.22 0-.4.36-.4.8 0 .44-.18.8-.4.8-.22 0-.4.36-.4.8 0 .44-.18.8-.4.8-.22 0-.4.272-.4.605 0 .588-.167 1.013-1.138 2.89-.566 1.096-.615 6.363-.062 6.705.22.136.4 1.227.4 2.424 0 1.197.18 2.176.4 2.176.22 0 .4.99.4 2.2 0 1.21.18 2.2.4 2.2.22 0 .4.642.4 1.426 0 1.171.339 1.76 1.9 3.3 1.045 1.031 2.418 2.568 3.052 3.415 1.301 1.741 3.473 3.926 6.819 6.859 1.255 1.1 3.076 2.765 4.045 3.7.97.935 1.916 1.7 2.103 1.7.187 0 1.303.9 2.481 2s2.307 2 2.51 2c.203 0 .873.54 1.49 1.2.617.66 1.279 1.2 1.472 1.2.193 0 .611.36.928.8.317.44.762.8.988.801.227 0 1.042.54 1.812 1.199s1.543 1.199 1.717 1.199c.174.001.703.361 1.175.801.472.44 1.095.8 1.383.8.289 0 .525.153.525.339 0 .187.72.664 1.6 1.061.88.397 1.6.874 1.6 1.061 0 .186.278.339.617.339.339 0 1.003.36 1.475.8.472.44 1.095.8 1.383.8.289 0 .525.18.525.4 0 .22.27.4.6.4.33 0 .6.18.6.4 0 .22.278.4.617.4.339 0 1.003.36 1.475.8.472.44 1.095.8 1.383.8.289 0 .525.18.525.4 0 .22.36.4.8.4.44 0 .8.18.8.4 0 .22.36.4.8.4.44 0 .8.18.8.4 0 .22.36.4.8.4.44 0 .8.18.8.4 0 .22.36.4.8.4.44 0 .8.18.8.4 0 .22.36.4.8.4.44 0 .8.18.8.4 0 .22.36.4.8.4.44 0 .8.18.8.4 0 .22.345.4.767.4.421 0 .826.135.9.3.125.281 3.151 1.822 4.933 2.511.44.17 1.623.673 2.629 1.118 1.005.444 2.49.932 3.3 1.084.809.152 1.471.436 1.471.632 0 .195.54.355 1.2.355.66 0 1.2.18 1.2.4 0 .22.45.4 1 .4s1 .18 1 .4c0 .22.45.4 1 .4s1 .18 1 .4c0 .22.63.4 1.4.4.77 0 1.4.18 1.4.4 0 .22.54.4 1.2.4.66 0 1.2.18 1.2.4 0 .22.54.4 1.2.4.66 0 1.2.18 1.2.4 0 .22.72.4 1.6.4.88 0 1.6.18 1.6.4 0 .22.529.4 1.176.4.647 0 1.288.18 1.424.4.136.22.867.4 1.624.4.757 0 1.376.18 1.376.4 0 .22.709.4 1.576.4.867 0 1.688.18 1.824.4.136.22.946.4 1.8.4.854 0 1.664.18 1.8.4.136.22 1.227.4 2.424.4 1.197 0 2.176.18 2.176.4 0 .22.979.4 2.176.4s2.288.18 2.424.4c.136.22 1.396.4 2.8.4s2.664.18 2.8.4c.136.221 1.93.4 4 .4 2.07 0 3.864.179 4 .4.338.548 31.262.548 31.6 0 .138-.223 1.996-.4 4.2-.4s4.062-.177 4.2-.4c.136-.22 1.576-.4 3.2-.4s3.064-.18 3.2-.4c.136-.22 1.227-.4 2.424-.4 1.197 0 2.176-.18 2.176-.4 0-.222 1.067-.4 2.4-.4s2.4-.178 2.4-.4c0-.22.889-.4 1.976-.4s2.088-.18 2.224-.4c.136-.22 1.047-.4 2.024-.4.977 0 1.776-.18 1.776-.4 0-.22.709-.4 1.576-.4.867 0 1.688-.18 1.824-.4.136-.22.957-.4 1.824-.4.867 0 1.576-.18 1.576-.4 0-.22.72-.4 1.6-.4.88 0 1.6-.18 1.6-.4 0-.22.529-.4 1.176-.4.647 0 1.288-.18 1.424-.4.136-.22.867-.4 1.624-.4.757 0 1.376-.18 1.376-.4 0-.22.529-.4 1.176-.4.647 0 1.288-.18 1.424-.4.136-.22.777-.4 1.424-.4.647 0 1.176-.18 1.176-.4 0-.22.54-.4 1.2-.4.66 0 1.2-.18 1.2-.4 0-.22.54-.4 1.2-.4.66 0 1.2-.18 1.2-.4 0-.22.446-.4.992-.4 1.362 0 7.432-1.99 9.903-3.247.382-.194 1.057-.353 1.5-.353.443 0 .805-.147.805-.328 0-.18.9-.572 2-.872 1.1-.3 2-.692 2-.872 0-.181.439-.328.976-.328.537 0 1.088-.18 1.224-.4.136-.22.597-.4 1.024-.4.427 0 .776-.18.776-.4 0-.22.272-.4.605-.4.333 0 .963-.18 1.4-.4l1.59-.8c.437-.22 1.067-.4 1.4-.4.333 0 .606-.135.608-.3.004-.406 1.983-1.3 2.877-1.3.396 0 .72-.18.72-.4 0-.22.36-.4.8-.4.44 0 .8-.18.8-.4 0-.22.36-.4.8-.4.44 0 .8-.18.8-.4 0-.22.36-.4.8-.4.44 0 .8-.18.8-.4 0-.22.36-.4.8-.4.44 0 .8-.18.8-.4 0-.22.45-.4 1-.4s1-.18 1-.4c0-.22.36-.4.8-.4.44 0 .8-.18.8-.4 0-.22.284-.4.632-.4.746 0 9.507-4.403 9.701-4.876.074-.178.479-.324.9-.324.422 0 .767-.18.767-.4 0-.22.36-.4.8-.4.44 0 .8-.18.8-.4 0-.22.36-.4.8-.4.44 0 .8-.18.8-.4 0-.22.236-.4.525-.4.288 0 .911-.36 1.383-.8.472-.44 1.136-.8 1.475-.8.339 0 .617-.18.617-.4 0-.22.27-.4.6-.4.33 0 .6-.18.6-.4 0-.22.32-.4.712-.4.391 0 .971-.36 1.288-.8.317-.44.814-.8 1.105-.8.291 0 .915-.36 1.387-.8.472-.44 1.095-.8 1.383-.8.289 0 .525-.18.525-.4 0-.22.32-.4.712-.4.391 0 .971-.36 1.288-.8.317-.44.897-.8 1.288-.8.392 0 .712-.153.712-.339 0-.187.72-.664 1.6-1.061.88-.397 1.6-.874 1.6-1.061 0-.186.242-.339.538-.339.296 0 .864-.36 1.262-.8.398-.44.926-.8 1.174-.8.247 0 .709-.36 1.026-.8.317-.44.78-.8 1.029-.8.249 0 1.017-.54 1.708-1.2.691-.66 1.455-1.2 1.699-1.2s.947-.54 1.564-1.2c.617-.66 1.337-1.2 1.6-1.2.263 0 .983-.54 1.6-1.2.617-.66 1.297-1.2 1.512-1.2.215 0 1.133-.72 2.04-1.6.907-.88 1.737-1.6 1.845-1.6.242 0 1.724-1.26 4.115-3.5.999-.935 1.977-1.7 2.175-1.7.198 0 .232-.208.075-.462-.173-.28-.11-.353.159-.187.49.303 15.279-14.325 15.279-15.112 0-.128 1.08-1.331 2.4-2.671 1.32-1.341 2.4-2.602 2.4-2.802 0-.201.72-1.107 1.6-2.014.88-.907 1.6-1.808 1.6-2.004 0-.195.54-.92 1.2-1.611.66-.691 1.2-1.433 1.2-1.649 0-.217.315-.688.7-1.047.837-.78 1.635-1.979 1.958-2.941.13-.385.394-.7.589-.7.194 0 .353-.27.353-.6 0-.33.18-.6.4-.6.22 0 .4-.27.4-.6 0-.33.18-.6.4-.6.22 0 .4-.27.4-.6 0-.33.18-.6.4-.6.22 0 .4-.32.4-.712 0-.391.36-.971.8-1.288.44-.317.8-.897.8-1.288 0-.392.18-.712.4-.712.22 0 .4-.236.4-.525 0-.288.36-.911.8-1.383.44-.472.8-1.136.8-1.475 0-.339.146-.617.325-.617.179 0 .573-.63.875-1.4.302-.77.696-1.4.875-1.4.179 0 .325-.36.325-.8 0-.44.18-.8.4-.8.22 0 .4-.36.4-.8 0-.44.18-.8.4-.8.22 0 .4-.36.4-.8 0-.44.18-.8.4-.8.22 0 .4-.36.4-.8 0-.44.18-.8.4-.8.22 0 .4-.36.4-.8 0-.44.18-.8.4-.8.22 0 .4-.36.4-.8 0-.44.147-.8.328-.8.18 0 .572-.9.872-2 .3-1.1.647-2 .772-2 .126 0 .575-1.125.999-2.5.424-1.375.919-2.671 1.1-2.88.181-.209.329-.794.329-1.3s.18-.92.4-.92c.22 0 .4-.54.4-1.2 0-.66.18-1.2.4-1.2.22 0 .4-.54.4-1.2 0-.66.18-1.2.4-1.2.22 0 .4-.54.4-1.2 0-.66.18-1.2.4-1.2.22 0 .4-.72.4-1.6 0-.88.18-1.6.4-1.6.22 0 .4-.63.4-1.4 0-.77.18-1.4.4-1.4.22 0 .4-.72.4-1.6 0-.88.18-1.6.4-1.6.22 0 .4-.9.4-2s.18-2 .4-2c.22 0 .4-.9.4-2s.18-2 .4-2c.226 0 .4-1.133.4-2.6s.174-2.6.4-2.6c.237 0 .4-1.459.4-3.576 0-1.967.18-3.688.4-3.824.252-.156.4-4.604.4-12.024 0-7.584-.142-11.776-.4-11.776-.237 0-.4-1.467-.4-3.6s-.163-3.6-.4-3.6c-.226 0-.4-1.133-.4-2.6s-.174-2.6-.4-2.6c-.22 0-.4-.709-.4-1.576 0-.867-.18-1.688-.4-1.824-.22-.136-.4-.946-.4-1.8 0-.854-.18-1.664-.4-1.8-.22-.136-.4-.777-.4-1.424 0-.647-.18-1.176-.4-1.176-.22 0-.4-.54-.4-1.2 0-.66-.18-1.2-.4-1.2-.22 0-.4-.36-.4-.8 0-.44-.18-.8-.4-.8-.22 0-.4-.36-.4-.8 0-.44-.18-.8-.4-.8-.22 0-.4-.36-.4-.8 0-.44-.18-.8-.4-.8-.22 0-.4-.36-.4-.8 0-.44-.18-.8-.4-.8-.22 0-.4-.27-.4-.6 0-.33-.18-.6-.4-.6-.22 0-.4-.262-.4-.582 0-.492-1.182-2.563-2.294-4.018-.168-.22-.561-.895-.874-1.5-.312-.605-.717-1.1-.9-1.1-.182 0-.332-.225-.333-.5 0-.275-.54-1.13-1.199-1.9s-1.199-1.585-1.199-1.812c-.001-.226-.361-.671-.801-.988-.44-.317-.8-.78-.8-1.029 0-.249-.54-1.017-1.2-1.708-.66-.691-1.2-1.398-1.2-1.571 0-.173-.36-.575-.8-.892-.44-.317-.8-.857-.8-1.2 0-.343-.36-.883-.8-1.2-.44-.317-.8-.857-.8-1.2 0-.343-.36-.883-.8-1.2-.44-.317-.8-.773-.8-1.013 0-.24-.325-.785-.721-1.212-.397-.426-.994-1.315-1.327-1.975-.782-1.551-1.698-3.146-1.953-3.4-.11-.11-.454-.692-.764-1.293-.309-.602-.894-1.449-1.299-1.884-.405-.434-.736-1.067-.736-1.406 0-.339-.18-.617-.4-.617-.22 0-.4-.36-.4-.8 0-.44-.18-.8-.4-.8-.22 0-.4-.36-.4-.8 0-.44-.18-.8-.4-.8-.22 0-.4-.54-.4-1.2 0-.66-.18-1.2-.4-1.2-.22 0-.4-.36-.4-.8 0-.44-.18-.8-.4-.8-.22 0-.4-.54-.4-1.2 0-.66-.18-1.2-.4-1.2-.22 0-.4-.821-.4-1.824 0-1.113-.156-1.727-.4-1.576-.251.155-.4-.721-.4-2.353 0-1.43.18-2.711.4-2.847.221-.137.4-1.937.4-4.024 0-2.251.162-3.776.4-3.776.253 0 .4-2.92.4-7.96v-7.96l-1.44-1.44-1.44-1.44h-14.336c-9.127 0-14.427.145-14.584.4m20.308 16.4c-.05 3.19-.199 8.23-.331 11.2-.339 7.628.545 11.271 4.953 20.4 2.036 4.218 9.699 16.592 10.899 17.6.253.212 2.785 3.878 9.477 13.718 3.853 5.666 6.772 10.791 7.452 13.082 2.478 8.361 3.217 12.873 3.85 23.498 1.094 18.36-1.666 36.877-8.134 54.565-2.415 6.604-6.389 15.229-9.092 19.737-.66 1.1-1.316 2.27-1.458 2.6-.142.33-.768 1.352-1.391 2.272-.623.92-1.133 1.794-1.133 1.944 0 .48-7.916 11.771-8.823 12.584-.123.11-.483.579-.8 1.043-9.625 14.063-36.514 36.686-58.237 48.997-.737.418-2.015 1.147-2.84 1.621-4.626 2.654-6.995 3.908-13.7 7.253-4.07 2.031-8.48 4.175-9.8 4.764-1.32.59-3.62 1.624-5.11 2.297-1.491.674-2.797 1.225-2.904 1.225-.107 0-1.048.378-2.09.84a113.961 113.961 0 0 1-2.796 1.2l-1.9.76c-.55.22-1.405.556-1.9.746-.495.191-1.35.534-1.9.763-2.392.996-5.042 1.927-11.8 4.143-8.93 2.929-9.067 2.972-12 3.767-1.32.358-3.03.827-3.8 1.042a128.03 128.03 0 0 1-6.3 1.561l-3.5.778c-26.527 5.895-52.842 6.71-77.8 2.41-4.451-.766-9.074-1.743-11.4-2.406-.88-.252-2.23-.613-3-.804-.77-.191-2.12-.549-3-.796-.88-.247-2.14-.596-2.8-.775-8.54-2.318-22.694-8.271-33.2-13.963-5.727-3.104-19.334-11.761-20.2-12.852-.11-.139-.83-.688-1.6-1.22-.77-.532-1.641-1.201-1.935-1.487-.294-.285-1.192-1.011-1.997-1.613-3.291-2.461-8.619-7.308-13.008-11.832-4.283-4.415-4.569-4.889-5.106-8.462-.963-6.4-1.018-5.861 1.033-9.995 2.275-4.583 1.783-4.478 8.413-1.795.44.178 1.25.44 1.8.584.55.143 1.63.44 2.4.66 22.516 6.426 54.907 5.832 87.8-1.611.88-.199 2.5-.555 3.6-.791 4.866-1.043 14.973-3.737 22-5.865 2.42-.733 5.39-1.631 6.6-1.996 1.21-.366 2.513-.828 2.895-1.028a3.783 3.783 0 0 1 1.476-.363c.43 0 .893-.18 1.029-.4.136-.22.676-.4 1.2-.4.524 0 1.064-.18 1.2-.4.136-.22.676-.4 1.2-.4.524 0 1.042-.144 1.151-.321.109-.176 1.121-.572 2.249-.879 1.128-.307 2.14-.703 2.249-.879.109-.177.602-.321 1.095-.321s1.067-.143 1.276-.318c.209-.175 1.1-.551 1.98-.834a37.79 37.79 0 0 0 3.296-1.282c.932-.421 1.88-.766 2.105-.766.225 0 .722-.165 1.104-.366.382-.202 4.385-1.841 8.895-3.644 16.208-6.477 31.567-14.072 41.654-20.597 1.524-.986 2.945-1.793 3.158-1.793.214 0 .388-.18.388-.4 0-.22.188-.4.418-.4.407 0 6.384-3.875 6.782-4.398.11-.144 1.303-1.005 2.652-1.914 2.298-1.549 10.108-7.511 10.548-8.053.11-.135 1.19-1.053 2.4-2.04 7.818-6.376 19.19-17.948 25.742-26.195a541.305 541.305 0 0 1 3.182-3.966c.702-.862 1.891-2.482 2.643-3.6.751-1.119 1.479-2.124 1.618-2.234.591-.469 6.277-9.372 8.814-13.8.378-.66 1.159-2.01 1.735-3 .895-1.537 5.591-10.955 6.682-13.4 3.986-8.933 7.782-19.656 9.629-27.2.215-.88.573-2.32.795-3.2 2.138-8.477 3.333-15.969 3.9-24.445.383-5.74.188-7.453-1.54-13.555-.606-2.138-1.111-4.14-1.412-5.6-.137-.66-.401-1.56-.588-2-.187-.44-.451-1.34-.588-2-.347-1.681-.83-3.618-1.573-6.32-.352-1.275-.639-2.756-.639-3.29v-.971l6.7-.128c3.685-.071 7.24-.12 7.9-.11l1.2.019-.092 5.8" />
    <path fill="#fbfbfb"
      d="M322.157 57.769c-.12.313-.025.931.212 1.373.237.443.431 1.257.431 1.808 0 .552.16 1.102.356 1.223.195.121.465.851.6 1.623l.488 2.808c.135.772.405 1.502.6 1.623.196.121.356.829.356 1.573s.16 1.452.356 1.573c.195.121.453.806.571 1.523.358 2.163.715 3.66 1.073 4.504.187.44.451 1.34.588 2 .136.66.449 1.92.694 2.8.895 3.204.117 14.022-1.667 23.2l-.777 4c-.363 1.87-.567 2.741-1.667 7.1a45.013 45.013 0 0 0-.644 3.004c-.119.717-.376 1.402-.571 1.523-.196.121-.356.662-.356 1.202 0 .54-.159 1.294-.353 1.676-.194.382-1.024 2.765-1.845 5.295-3.372 10.396-8.485 21.857-14.14 31.7-.474.825-1.195 2.085-1.601 2.8-1.85 3.255-7.532 11.856-9.975 15.1-.746.99-1.745 2.324-2.221 2.963-.476.64-1.045 1.36-1.265 1.6-.22.241-.892 1.096-1.494 1.902-.602.806-1.322 1.706-1.6 2-.278.294-1.492 1.705-2.697 3.135-3.636 4.316-9.295 10.113-16.649 17.053-1.905 1.798-5.726 5.1-7.282 6.293-.593.455-1.168.931-1.278 1.059-.11.128-1.37 1.116-2.8 2.195-1.43 1.079-2.69 2.073-2.8 2.208-.11.135-1.1.851-2.2 1.592-1.1.741-2.09 1.465-2.2 1.61-.681.894-14.781 9.88-21 13.382-6.515 3.67-21.96 11.408-22.768 11.408-.117 0-1.341.51-2.722 1.133-1.38.623-5.12 2.173-8.31 3.444a1877.97 1877.97 0 0 0-6.8 2.721c-.55.225-1.405.565-1.9.756-1.749.673-3.108 1.243-3.795 1.593-.382.194-.969.353-1.305.353-.336 0-.968.18-1.405.4l-1.59.8c-.437.22-1.069.4-1.405.4-.336 0-.968.18-1.405.4l-1.59.8c-.437.22-1.069.4-1.405.4-.336 0-.923.177-1.305.393-1.248.707-15.946 5.367-23.295 7.386-.55.151-1.63.455-2.4.675-.77.219-2.03.555-2.8.746-.77.191-2.12.541-3 .779-.88.238-2.41.619-3.4.846-.99.228-2.52.595-3.4.816-1.897.477-4.479 1.051-7.1 1.577-1.045.21-2.755.556-3.8.769-16.288 3.319-28.941 4.613-45.1 4.612-14.143-.001-20.88-.641-31.6-3.003-1.1-.242-2.587-.54-3.304-.662-.717-.122-1.402-.383-1.523-.578-.121-.196-.739-.356-1.373-.356s-1.264-.18-1.4-.4c-.136-.22-.651-.4-1.144-.4-.493 0-1.067-.149-1.276-.33-.209-.182-1.19-.575-2.18-.872-.99-.298-2.001-.692-2.247-.875-.848-.631-4.87 7.104-4.356 8.378.155.384.459 1.869.675 3.299.217 1.43.486 3.165.599 3.855.335 2.043 11.492 12.979 18.921 18.545.734.55 1.531 1.186 1.771 1.413.241.227 1.067.849 1.837 1.381s1.49 1.082 1.6 1.222c.354.452 9.703 6.592 12.8 8.406 4.924 2.886 5.308 3.101 7.6 4.243 1.21.604 2.29 1.198 2.4 1.322.497.557 9.841 4.773 15.8 7.129 6.604 2.611 13.757 4.861 22.4 7.047 3.202.81 4.857 1.179 9.2 2.051 10.335 2.076 18.357 2.724 33.8 2.732 15.731.008 20.255-.343 35.6-2.764.77-.121 2.12-.377 3-.569a215.6 215.6 0 0 1 4-.81c1.32-.255 3.03-.621 3.8-.814.77-.193 3.02-.739 5-1.212 5.774-1.382 19.299-5.303 22-6.378.44-.175 1.43-.535 2.2-.799.77-.264 1.76-.624 2.2-.8.44-.176 1.43-.536 2.2-.8a63.17 63.17 0 0 0 2.3-.84l1.9-.76 2-.8 2-.8 1.9-.759c6.265-2.501 27.656-12.49 28.3-13.216.11-.124.92-.602 1.8-1.063.88-.462 2.275-1.227 3.1-1.7.825-.474 2.13-1.222 2.9-1.662 3.433-1.962 4.243-2.444 8.339-4.962 5.521-3.393 10.422-6.681 10.594-7.108a.58.58 0 0 1 .496-.33c.199 0 .679-.259 1.066-.576.388-.317 2.505-1.92 4.705-3.562 14.513-10.836 28.768-24.984 37.742-37.462 1.863-2.59 7.863-11.691 8.176-12.4.145-.33.803-1.5 1.462-2.6 1.22-2.036 5.285-10.109 6.763-13.432 3.979-8.944 7.504-20.791 9.275-31.168.244-1.43.603-3.5.798-4.6 2.101-11.863 1.079-35.195-2.014-46a78.14 78.14 0 0 1-.688-2.562c-.651-2.714-7.697-14.787-10.673-18.287-.718-.845-1.476-1.92-7.479-10.614-4.495-6.511-6.735-10.083-8.362-13.337-.55-1.1-1.135-2.06-1.3-2.133-.165-.074-.3-.479-.3-.9 0-.422-.18-.767-.4-.767-.22 0-.4-.236-.4-.525 0-.289-.337-1.234-.749-2.1-3.109-6.537-4.363-13.794-3.484-20.175.318-2.31.703-6.225.857-8.7l.279-4.5h-7.464c-6.083 0-7.504.105-7.682.569" />
    <path fill="#868484"
      d="M334.8 56.556c0 .086.617.229 1.372.317.755.088 1.284.017 1.176-.157-.193-.313-2.548-.461-2.548-.16m-11.7.537c.935.084 2.465.084 3.4 0s.17-.153-1.7-.153c-1.87 0-2.635.069-1.7.153m-.694 4.74c.003.422.189 1.037.412 1.367.297.438.334.276.138-.6-.329-1.471-.558-1.79-.55-.767m14.871 3.234c-.042 1.357-.181 2.797-.307 3.2-.215.683-.2.686.219.034.255-.397.388-1.777.307-3.2l-.142-2.501-.077 2.467m-14.071-.034c.003.422.189 1.037.412 1.367.297.438.334.276.138-.6-.329-1.471-.558-1.79-.55-.767m13.133 7.667c-.077 1.045-.032 2.8.098 3.9.184 1.55.251 1.122.3-1.9.066-4.094-.162-5.239-.398-2m-10.733 1.533c.003.422.189 1.037.412 1.367.297.438.334.276.138-.6-.329-1.471-.558-1.79-.55-.767m11.25 6.567c0 .33.155.96.344 1.4.217.504.344.578.344.2 0-.33-.155-.96-.344-1.4-.217-.504-.344-.578-.344-.2m-8.706 6.696-.048 4.304.355-3.381c.196-1.86.217-3.797.048-4.305-.186-.558-.327.777-.355 3.382m-.681 8.46c-.148.739-.249 1.727-.225 2.194.024.468.203.04.398-.95s.296-1.977.225-2.194c-.071-.216-.25.211-.398.95m-.793 5.654a8.163 8.163 0 0 0-.23 1.99c.025.718.138.557.403-.573.406-1.732.251-3.002-.173-1.417m19.273.19c.216.44.685 1.16 1.044 1.6l.651.8-.393-.8c-.216-.44-.685-1.16-1.044-1.6l-.651-.8.393.8m-20.149 5c-.152.691-.193 1.341-.091 1.442.102.102.3-.389.441-1.092.333-1.667.01-1.99-.35-.35m-.751 3.415c-.137.358-.233 1.041-.213 1.518.026.614.149.475.423-.477.398-1.384.235-2.198-.21-1.041m28.142 2.573c1.237 1.736 1.834 1.946.741.26-.513-.791-1.079-1.44-1.259-1.443-.18-.003.053.53.518 1.183m-28.942 1.027a3.854 3.854 0 0 0-.215 1.318c.019.367.193.136.387-.513.377-1.262.244-1.887-.172-.805m-.8 3.2a3.854 3.854 0 0 0-.215 1.318c.019.367.193.136.387-.513.377-1.262.244-1.887-.172-.805m35.159 3.343c.807 1.123 1.549 2.042 1.649 2.042.275 0-2.205-3.52-2.691-3.821-.234-.144.235.656 1.042 1.779m-37.559 5.057a3.854 3.854 0 0 0-.215 1.318c.019.367.193.136.387-.513.377-1.262.244-1.887-.172-.805m50.185 19.785c.012.33.177.96.366 1.4l.344.8.022-.8c.012-.44-.153-1.07-.366-1.4-.345-.533-.385-.533-.366 0m1.039 5.2c.131.99.303 1.875.383 1.967.301.347.072-2.203-.266-2.967-.237-.534-.276-.202-.117 1m.821 6.4c.12 1.43.283 2.675.362 2.767.279.322.06-3.379-.258-4.367-.193-.6-.235.04-.104 1.6m-67.28 3.835c-.373.569-.609 1.103-.525 1.187.084.085.469-.381.855-1.034.862-1.46.604-1.579-.33-.153M373.75 169c.001 2.42.066 3.358.146 2.085.08-1.273.079-3.253-.002-4.4-.08-1.147-.145-.105-.144 2.315m-71.904-1.6c-.355.55-.937 1.495-1.293 2.1l-.648 1.1.805-.974c.95-1.15 2.211-3.226 1.959-3.226-.098 0-.468.45-.823 1m71.422 12.4a53.09 53.09 0 0 1-.271 3.2l-.194 1.6.419-1.335c.23-.734.352-2.174.271-3.2-.147-1.846-.15-1.848-.225-.265m-84.713 6.081c-.848 1.035-1.333 1.753-1.078 1.595.544-.336 3.078-3.476 2.805-3.476-.102 0-.879.847-1.727 1.881m83.699 2.473c-.154.964-.196 1.837-.093 1.94.269.269.754-2.549.546-3.172-.095-.286-.299.268-.453 1.232m-86.676 1.146L284.2 191l1.5-1.378c1.396-1.284 1.684-1.622 1.378-1.622-.066 0-.741.675-1.5 1.5m-2.772 3.094c-.743.767-1.274 1.456-1.179 1.531.095.075.779-.552 1.519-1.394 1.683-1.913 1.466-2-.34-.137m88.848.073a8.132 8.132 0 0 1-.284 1.6c-.218.694-.206.695.226.021.251-.391.379-1.111.285-1.6-.172-.887-.172-.887-.227-.021m-96.66 8.233-5.194 5.3 5.3-5.194c2.915-2.857 5.3-5.242 5.3-5.3 0-.287-.581.271-5.406 5.194m95.635-3.471c-.148.586-.191 1.143-.097 1.237.095.094.292-.308.439-.895.148-.586.191-1.143.097-1.237-.095-.094-.292.308-.439.895m-103.523 10.782c-.822.764-1.352 1.389-1.179 1.389.174 0 .927-.63 1.673-1.4 1.741-1.797 1.443-1.79-.494.011m-5.252 4.444c-.631.542-1.081 1.051-1 1.131.08.08.662-.298 1.292-.841.631-.542 1.081-1.051 1-1.131-.08-.08-.662.298-1.292.841M363 221.861c-.336.804-.518 1.554-.405 1.667.113.113.205.107.205-.012 0-.12.272-.87.605-1.667.333-.797.516-1.449.406-1.449-.11 0-.475.658-.811 1.461m-113.593.361c-1.096.758-1.848 1.378-1.672 1.378.383 0 3.865-2.36 3.865-2.619 0-.27-.041-.247-2.193 1.241m112.193 2.662c0 .12-.272.87-.605 1.667-.333.797-.516 1.449-.406 1.449.317 0 1.444-2.9 1.216-3.128-.113-.113-.205-.107-.205.012M234.6 232c-.66.437-1.02.792-.8.788.401-.006 2.576-1.565 2.2-1.576-.11-.004-.74.351-1.4.788m111.608 19.642c-.807 1.123-1.276 1.923-1.042 1.779.486-.301 2.966-3.821 2.691-3.821-.1 0-.842.919-1.649 2.042m-4.541 5.935c-.697.867-1.267 1.69-1.267 1.83 0 .229.833-.727 2.358-2.707 1.094-1.418.134-.648-1.091.877m-4.692 5.723-1.175 1.3 1.3-1.175c1.212-1.095 1.484-1.425 1.175-1.425-.069 0-.654.585-1.3 1.3m-7.181 7.6-5.194 5.3 5.3-5.194c4.923-4.825 5.481-5.406 5.194-5.406-.058 0-2.443 2.385-5.3 5.3M145 268.4c-.504.217-.578.344-.2.344.33 0 .96-.155 1.4-.344.504-.217.578-.344.2-.344-.33 0-.96.155-1.4.344m-115.177 2.763c-.123.199.134.269.572.154.437-.114 1.521.083 2.408.438 2.178.871 2.585.765.597-.155-1.765-.817-3.232-.996-3.577-.437M130.6 272c-1.019.438.032.438 1.4 0 .804-.257.843-.323.2-.332-.44-.006-1.16.143-1.6.332m-7.4 1.606c-.422.276-.185.317.8.136 1.725-.317 2.051-.544.767-.536-.532.003-1.237.183-1.567.4m-4.2.813c-.558.252-.315.288.8.119.88-.134 1.675-.31 1.767-.391.343-.303-1.799-.076-2.567.272m-75.767.525c.092.079.707.264 1.367.412.876.196 1.038.159.6-.138-.54-.365-2.368-.62-1.967-.274m71.367.275c-.558.252-.315.288.8.119.88-.134 1.675-.31 1.767-.391.343-.303-1.799-.076-2.567.272m-67.767.525c.092.079.707.264 1.367.412.876.196 1.038.159.6-.138-.54-.365-2.368-.62-1.967-.274m62.567.266c-.534.237-.202.276 1 .117.99-.131 1.875-.303 1.967-.383.347-.301-2.203-.072-2.967.266m-58.567.537c.092.081.887.257 1.767.391 1.115.169 1.358.133.8-.119-.768-.348-2.91-.575-2.567-.272m52.767.266c-.646.216-.22.253 1.2.106 1.21-.125 2.275-.293 2.367-.373.32-.281-2.576-.063-3.567.267m-46.2.81c2.026.419 3.663.4 2-.023a11.81 11.81 0 0 0-2.4-.307c-1.009-.001-.945.052.4.33m39-.023c-1.999.421.052.438 2.4.02 1.624-.288 1.663-.32.4-.317-.77.001-2.03.135-2.8.297m-30.8.814c1.43.161 3.59.285 4.8.276 2.151-.016 2.138-.022-.6-.303-1.54-.158-3.7-.283-4.8-.276-1.882.01-1.846.028.6.303m18.6-.014-2.8.259 2.6.021c1.43.011 3.86-.109 5.4-.267l2.8-.287-2.6.008c-1.43.004-3.86.124-5.4.266m235.043 2.278c-1.626 1.444-2.768 2.558-2.538 2.474.606-.221 6.213-5.157 5.823-5.127-.18.015-1.658 1.208-3.285 2.653m-292.815-.245c.016.532.191 1.327.391 1.767.252.558.288.315.119-.8-.283-1.857-.551-2.364-.51-.967m.8 4.8c.016.532.191 1.327.391 1.767.252.558.288.315.119-.8-.283-1.857-.551-2.364-.51-.967m283.172 2.816c-1.394 1.222-1.395 1.223-.112.37.708-.471 1.394-1.028 1.524-1.238.385-.624.065-.427-1.412.868m-7.2 5.206c-3.127 2.256-3.459 2.765-.525.803 1.362-.91 2.587-1.835 2.724-2.056.353-.572.249-.512-2.199 1.253M34.6 295.6c1.083 1.1 2.06 2 2.17 2 .11 0-.687-.9-1.77-2s-2.06-2-2.17-2c-.11 0 .687.9 1.77 2m3.517 3.059c.344.565 5.083 4.694 5.083 4.429 0-.104-1.207-1.247-2.682-2.539-1.475-1.292-2.555-2.143-2.401-1.89m254.764 1.513c-1.756 1.242-2.184 1.773-.681.846 2.078-1.283 2.791-1.819 2.389-1.798-.214.01-.982.439-1.708.952m-4.581 2.857c-1.495.811-1.404 1.149.1.371.66-.341 1.2-.706 1.2-.81 0-.258-.043-.243-1.3.439M50.833 309.33c.092.071.797.536 1.567 1.033l1.4.903-1.2-1.031c-.66-.567-1.365-1.032-1.567-1.033-.201-.001-.291.056-.2.128m220.667 3.096c-1.265.653-2.3 1.277-2.3 1.386 0 .11 1.08-.346 2.4-1.012 1.32-.666 2.4-1.299 2.4-1.406 0-.266.074-.297-2.5 1.032m-211.1 3.272c.746.72 3.6 2.439 3.6 2.169 0-.109-.945-.772-2.1-1.473-1.155-.701-1.83-1.014-1.5-.696m203.2.702c-.77.422-1.22.766-1 .766.22 0 1.03-.344 1.8-.766.77-.422 1.22-.766 1-.766-.22 0-1.03.344-1.8.766m-179 12.309c.22.204 1.21.682 2.2 1.061.99.38 1.62.525 1.4.321-.22-.204-1.21-.682-2.2-1.061-.99-.38-1.62-.525-1.4-.321m7.226 3.056c2.018.879 3.3 1.094 1.574.264-.88-.423-1.87-.776-2.2-.784-.33-.007-.048.227.626.52M209.6 336.4c-.533.345-.533.388 0 .388.33 0 .87-.175 1.2-.388.533-.345.533-.388 0-.388-.33 0-.87.175-1.2.388m-95.2 2.382c.33.223.945.409 1.367.412 1.023.008.704-.221-.767-.55-.876-.196-1.038-.159-.6.138m84.8.018c-.824.264-.859.326-.2.354.44.019 1.07-.141 1.4-.354.701-.453.214-.453-1.2 0m-81.2.782c.33.223.945.409 1.367.412 1.023.008.704-.221-.767-.55-.876-.196-1.038-.159-.6.138m77.2.018c-.804.257-.843.323-.2.332.44.006 1.16-.143 1.6-.332 1.019-.438-.032-.438-1.4 0m-73.2.794c.33.217 1.035.397 1.567.4 1.284.008.958-.219-.767-.536-.985-.181-1.222-.14-.8.136m68.8.006c-1.384.291-1.386.295-.2.341.66.026 1.47-.128 1.8-.341.666-.43.445-.43-1.6 0m-64.2.781c.768.348 2.91.575 2.567.272-.092-.081-.887-.257-1.767-.391-1.115-.169-1.358-.133-.8.119m59 .019c-1.367.288-1.372.295-.2.319.66.014 1.56-.13 2-.319.962-.413.164-.413-1.8 0m-53.8.804c.767.326 4.111.549 3.767.252-.092-.079-1.157-.245-2.367-.368-1.369-.139-1.898-.096-1.4.116m47.6-.004-2 .274 1.8.035c.99.019 2.16-.12 2.6-.309.913-.392.462-.392-2.4 0m-38.309 1.089c.71.088 1.97.09 2.8.003.83-.087.249-.159-1.291-.161-1.54-.002-2.219.069-1.509.158m27.809.002c.825.087 2.175.087 3 0 .825-.086.15-.157-1.5-.157s-2.325.071-1.5.157m-16.4.407c2.145.072 5.655.072 7.8 0 2.145-.072.39-.131-3.9-.131s-6.045.059-3.9.131" />
    <path fill="#b0adad"
      d="m334.976 57.086 2.18.153.161 1.583.161 1.584-.039-1.703L337.4 57l-2.302-.033-2.302-.033 2.18.152m-12.148 5.19c.09 1.039.716 1.92.744 1.048.015-.482-.152-.988-.372-1.124-.22-.136-.387-.102-.372.076m14.1 2.124c0 1.43.073 2.015.161 1.3.089-.715.089-1.885 0-2.6-.088-.715-.161-.13-.161 1.3m-.427 4.2c.004.88.086 1.193.182.695.096-.497.092-1.217-.008-1.6-.1-.382-.179.025-.174.905m-12.073-.324c.09 1.039.716 1.92.744 1.048.015-.482-.152-.988-.372-1.124-.22-.136-.387-.102-.372.076m11.273 6.324c.004.88.086 1.193.182.695.096-.497.092-1.217-.008-1.6-.1-.382-.179.025-.174.905m-9.457.4c.329 1.471.558 1.79.55.767-.003-.422-.189-1.037-.412-1.367-.297-.438-.334-.276-.138.6m.796 3.266c.368 1.533.56 1.678.56.424 0-.573-.187-1.158-.416-1.3-.273-.169-.322.133-.144.876m9.366 2.367c.003.642.178 1.437.389 1.767.26.409.304.09.137-1-.303-1.977-.534-2.314-.526-.767m-8.562.367c.329 1.471.558 1.79.55.767-.003-.422-.189-1.037-.412-1.367-.297-.438-.334-.276-.138.6m.852 4.483c.225 3.159.436 3.575.466.917.014-1.21-.122-2.433-.302-2.717-.184-.289-.256.506-.164 1.8m-.195 4.717c.004.88.086 1.193.182.695.096-.497.092-1.217-.008-1.6-.1-.382-.179.025-.174.905m-.429 4.25c-.04 1.018-.161 2.458-.271 3.2l-.198 1.35.419-1.335c.23-.734.352-2.174.271-3.2l-.149-1.865-.072 1.85m-.81 6.35c-.04.77-.166 1.85-.279 2.4l-.206 1 .431-.986c.236-.543.362-1.623.278-2.4l-.152-1.414-.072 1.4m18.724 1.8c.47.88 1.22 2.05 1.668 2.6.776.953.774.925-.04-.6-.47-.88-1.22-2.05-1.668-2.6-.776-.953-.774-.925.04.6m-19.526 3.067c-.033.587-.164 1.397-.29 1.8-.218.693-.205.694.225.023.251-.391.382-1.201.291-1.8l-.166-1.09-.06 1.067m25.776 6.308c1.638 2.413 3.142 4.488 3.342 4.612.2.123-.976-1.749-2.614-4.162s-3.142-4.488-3.342-4.612c-.2-.123.976 1.749 2.614 4.162m-26.587-2.375c-.033.33-.16 1.05-.282 1.6-.192.864-.16.903.232.288.249-.391.376-1.111.282-1.6-.095-.488-.199-.618-.232-.288m-.803 3.667c-.025.367-.15.997-.276 1.4-.218.695-.207.696.227.02.251-.391.376-1.021.276-1.4-.162-.619-.185-.621-.227-.02m32.791 6.333c1.159 1.796 1.163 1.801 1.161 1.367-.001-.202-.466-.907-1.033-1.567l-1.031-1.2.903 1.4m-34.391-.133c-.025.257-.162.797-.305 1.2-.201.569-.147.63.238.275.273-.251.41-.791.305-1.2-.105-.408-.212-.532-.238-.275M365.16 130.6c.674 1.305 1.228 2.028 1.225 1.6-.002-.22-.371-.85-.821-1.4-.543-.664-.679-.731-.404-.2m2.426 4.635c1.232 2.605 1.928 3.644 1.254 1.87-.576-1.516-2.022-4.305-2.231-4.305-.096 0 .343 1.096.977 2.435m1.632 3.537c-.018.571.599 2.722 1.212 4.228.522 1.283-.062-1.626-.666-3.32-.291-.814-.537-1.223-.546-.908m-54.418 4.512c0 .12-.272.87-.605 1.667-.333.797-.516 1.449-.406 1.449.317 0 1.444-2.9 1.216-3.128-.113-.113-.205-.107-.205.012m56.006 1.749c.003.642.178 1.437.389 1.767.26.409.304.09.137-1-.303-1.977-.534-2.314-.526-.767m-58.384 3.676c-1.323 2.695-2.062 4.491-1.849 4.491.249 0 3.082-6.078 2.912-6.248-.074-.074-.552.717-1.063 1.757m59.206.524c.016.752.184 1.727.375 2.167.223.515.264.087.115-1.2-.274-2.378-.529-2.881-.49-.967m.819 5.8c.026 1.082.188 2.507.359 3.167.182.703.222-.042.097-1.8-.246-3.441-.526-4.282-.456-1.367m-63.061-.133-.634 1.3.815-1c.785-.963 1.041-1.6.643-1.6-.104 0-.475.585-.824 1.3m63.981 14.5c0 4.18.059 5.836.131 3.679.073-2.156.072-5.576 0-7.6-.073-2.023-.132-.259-.131 3.921m-69.581-4.5-.634 1.3.815-1c.785-.963 1.041-1.6.643-1.6-.104 0-.475.585-.824 1.3m-5.289 8.129c-2.007 2.986-3.416 5.236-3.133 5.001.74-.614 7.264-10.43 6.932-10.43-.083 0-1.792 2.443-3.799 5.429m74.098 8.682c-.152 1.416-.203 2.915-.115 3.331.089.417.297-.658.462-2.388.165-1.73.216-3.229.114-3.331-.102-.102-.31.972-.461 2.388m-83.361 3.847c-.679.856-1.234 1.68-1.234 1.83 0 .245.805-.673 2.358-2.688.297-.385.443-.7.325-.7-.119 0-.771.701-1.449 1.558m82.622 2.526c-.135.504-.226 1.456-.203 2.116.028.828.144.584.373-.787.35-2.09.248-2.887-.17-1.329m-86.841 2.516c-1.255 1.43-2.132 2.588-1.949 2.573.341-.027 4.724-5.173 4.406-5.173-.096 0-1.202 1.17-2.457 2.6m85.985 3c-.154.91-.196 1.738-.093 1.84.103.103.306-.563.453-1.48.147-.917.188-1.745.093-1.84-.095-.096-.299.57-.453 1.48m-94.805 6.497c-3.517 3.573-5.061 5.238-3.43 3.7 3.386-3.195 3.637-3.443 7.424-7.332 1.534-1.576 2.702-2.865 2.596-2.865-.107 0-3.072 2.924-6.59 6.497m94.061-3.213c-.135.504-.228 1.366-.207 1.916.023.589.182.271.387-.775.367-1.873.237-2.698-.18-1.141m-1.592 7.016c-.495 1.825-.656 3.068-.325 2.5.395-.675.929-3.2.678-3.2-.09 0-.248.315-.353.7m-101.886 5.196c-1.19 1.292-1.216 1.36-.196.5 1.957-1.65 2.291-1.996 1.925-1.996-.193 0-.97.673-1.729 1.496m-3.205 2.809-1.373 1.493 1.398-1.199c.769-.659 1.474-1.244 1.567-1.299.092-.055.081-.187-.026-.294-.106-.107-.811.478-1.566 1.299m-4.403 3.563-.97 1.068 1.087-.768c.599-.422 1.094-.903 1.1-1.068.021-.493-.198-.354-1.217.768m-2.785 2.161L255 218.858l1.5-1.077c1.326-.951 1.757-1.381 1.385-1.381-.063 0-.738.553-1.5 1.229m-2.556 1.8c-.424.309-.693.64-.599.734.094.094.518-.082.941-.392.424-.309.693-.64.599-.734-.094-.094-.518.082-.941.392m-5.229 3.85c-2.416 1.769-2.665 2.215-.4.715 2.436-1.612 2.371-1.56 2.167-1.74-.092-.081-.887.381-1.767 1.025m-8.004 5.373c-2.836 1.879-4.595 3.312-2.396 1.953 3.647-2.255 5.804-3.805 5.296-3.805-.058 0-1.363.833-2.9 1.852m-5.715 3.52c-1.756 1.242-2.184 1.773-.681.846 2.078-1.283 2.791-1.819 2.389-1.798-.214.01-.982.439-1.708.952m-3.681 2.264c-.664.543-.731.679-.2.404 1.305-.674 2.028-1.228 1.6-1.225-.22.002-.85.371-1.4.821m124.614 1.399c-.373.569-.609 1.103-.525 1.187.084.085.469-.381.855-1.034.862-1.46.604-1.579-.33-.153m-1.6 2.8c-.373.569-.609 1.103-.525 1.187.084.085.469-.381.855-1.034.862-1.46.604-1.579-.33-.153m-131.514.394c-1.495.811-1.404 1.149.1.371.66-.341 1.2-.706 1.2-.81 0-.258-.043-.243-1.3.439m129.946 2.371c-.355.55-.937 1.495-1.293 2.1l-.648 1.1.805-.974c.95-1.15 2.211-3.226 1.959-3.226-.098 0-.468.45-.823 1M214.4 243.2c-.77.422-1.287.774-1.149.783.414.028 3.149-1.178 3.149-1.388 0-.349-.575-.175-2 .605m-5.8 2.785c-1.32.638-2.27 1.173-2.112 1.188.408.038 4.712-1.957 4.712-2.185 0-.265.052-.285-2.6.997m138.144 4.315c-1.269 1.532-1.725 2.242-1.263 1.965.512-.307 2.288-2.665 2.008-2.665-.091 0-.426.315-.745.7M173 260c-.771.331-.769.345.076.372.482.015.988-.152 1.124-.372.292-.473-.099-.473-1.2 0m165.8.306c0 .168-1.08 1.502-2.4 2.964-1.32 1.463-2.4 2.758-2.4 2.878 0 .192 1.016-.886 4.76-5.048.544-.605.776-1.1.515-1.1s-.475.137-.475.306m-176.724 3.364c-1.389.448-2.454.885-2.367.972.184.184 5.491-1.438 5.491-1.679 0-.259-.441-.159-3.124.707m-5.81 1.804c-1.063.326-1.857.668-1.763.762.093.094 1.234-.173 2.533-.593 1.3-.42 2.094-.762 1.764-.761-.33.001-1.47.267-2.534.592M152 266.818c-.438.297-.276.334.6.138 1.471-.329 1.79-.558.767-.55-.422.003-1.037.189-1.367.412m-2.6.782c-.504.217-.578.344-.2.344.33 0 .96-.155 1.4-.344.504-.217.578-.344.2-.344-.33 0-.96.155-1.4.344m178.871 4.248c-2.382 2.325-4.263 4.294-4.18 4.376.082.082 2.117-1.825 4.522-4.237 2.405-2.413 4.286-4.382 4.18-4.376-.106.006-2.141 1.912-4.522 4.237M146.4 268.4c-.533.345-.533.388 0 .388.33 0 .87-.175 1.2-.388.533-.345.533-.388 0-.388-.33 0-.87.175-1.2.388m-2.8.8c-.533.345-.533.388 0 .388.33 0 .87-.175 1.2-.388.533-.345.533-.388 0-.388-.33 0-.87.175-1.2.388m-6.2 1.6c-.504.217-.578.344-.2.344.33 0 .96-.155 1.4-.344.504-.217.578-.344.2-.344-.33 0-.96.155-1.4.344m-108.796 3.7a659.348 659.348 0 0 1-1.736 3.7c-.108.22-.067.285.09.144.474-.422 3.707-7.144 3.437-7.144-.138 0-.944 1.485-1.791 3.3m101.996-2.1-.8.344.8.022c.44.012 1.07-.153 1.4-.366.795-.514-.204-.514-1.4 0m-3.6.8-.8.344.8.022c.44.012 1.07-.153 1.4-.366.795-.514-.204-.514-1.4 0m-88.8.8c.136.22.642.387 1.124.372.845-.027.847-.041.076-.372-1.101-.473-1.492-.473-1.2 0m85 0c-.824.264-.859.326-.2.354.44.019 1.07-.141 1.4-.354.701-.453.214-.453-1.2 0m-4.2.8c-1.107.282-1.123.309-.2.347.55.022 1.27-.134 1.6-.347.681-.44.329-.44-1.4 0m-75 .782c.33.223.945.409 1.367.412 1.023.008.704-.221-.767-.55-.876-.196-1.038-.159-.6.138m70.4.018c-1.367.288-1.372.295-.2.319.66.014 1.56-.13 2-.319.962-.413.164-.413-1.8 0m-66.8.794c.33.217 1.035.397 1.567.4 1.284.008.958-.219-.767-.536-.985-.181-1.222-.14-.8.136m61.8.006-1.6.286 1.4.029c.77.016 1.76-.126 2.2-.315.943-.405.262-.405-2 0m-57.8.797c.541.353 3.964.602 3.567.259-.092-.079-1.067-.257-2.167-.397-1.365-.173-1.81-.129-1.4.138m51.8.003-2 .274 1.8.023c.99.013 2.25-.121 2.8-.297 1.244-.399.306-.399-2.6 0m216.6 2.459-2.6 2.432 2.502-2.087c2.207-1.841 3.21-2.832 2.822-2.791-.068.008-1.294 1.108-2.724 2.446m-263.2-1.651c.992.31 5.487.525 5.167.247-.092-.079-1.517-.238-3.167-.352-1.693-.117-2.564-.072-2 .105M96 278l-2.6.262 2.4.022c1.32.012 2.94-.116 3.6-.284 1.521-.387.443-.387-3.4 0m-31 .865c2.572.341 22.113.337 25-.005 1.21-.143-4.37-.26-12.4-.26-8.03 0-13.7.119-12.6.265M27.073 281.6c.131.99.303 1.875.383 1.967.301.347.072-2.203-.266-2.967-.237-.534-.276-.202-.117 1m286.358 3.451c-1.964 1.61-3.764 3.153-4 3.428-.482.559-.17.325 4.369-3.283 1.76-1.399 3.275-2.6 3.367-2.67.091-.069.091-.188 0-.265-.092-.076-1.773 1.179-3.736 2.79M27.862 286.2c.134.88.31 1.675.391 1.767.303.343.076-1.799-.272-2.567-.252-.558-.288-.315-.119.8m.538 2.325c0 .069.585.654 1.3 1.3L31 291l-1.175-1.3c-1.095-1.212-1.425-1.484-1.425-1.175m278.785 1.504-1.385 1.229 1.5-1.077c1.326-.951 1.757-1.381 1.385-1.381-.063 0-.738.553-1.5 1.229m-3.08 2.096c-.712.481-1.297 1.019-1.3 1.195-.003.177.625-.16 1.395-.747s1.4-1.137 1.4-1.22c0-.226-.081-.184-1.495.772M35.2 295.429c0 .238.052.289 2.624 2.568 1.226 1.087 1.135.932-.409-.7-1.991-2.103-2.215-2.292-2.215-1.868m255 6.019c-1.98 1.221-3.78 2.411-4 2.644-.505.536-.422.491 3.8-2.085 3.122-1.905 4.44-2.83 3.98-2.792-.099.008-1.8 1.013-3.78 2.233m-248.713-.239c.708.742 1.355 1.269 1.438 1.17.083-.098-.496-.706-1.287-1.35l-1.438-1.171 1.287 1.351M284 305.236c-.664.543-.731.679-.2.404 1.305-.674 2.028-1.228 1.6-1.225-.22.002-.85.371-1.4.821m-2.8 1.6c-.664.543-.731.679-.2.404 1.305-.674 2.028-1.228 1.6-1.225-.22.002-.85.371-1.4.821M266 314.8c-.77.422-1.22.766-1 .766.22 0 1.03-.344 1.8-.766.77-.422 1.22-.766 1-.766-.22 0-1.03.344-1.8.766m-202.831 2.291c.534.39 1.884 1.208 3 1.818 1.117.611 1.595.791 1.062.4-.534-.39-1.884-1.208-3-1.818-1.117-.611-1.595-.791-1.062-.4m195.335 1.25c-1.373.615-2.633 1.258-2.8 1.43-.281.29.281.073 4.096-1.576.77-.333 1.4-.693 1.4-.8 0-.27.082-.299-2.696.946M68.8 320.42c1.387.941 2.178 1.215 1.2.416-.55-.45-1.18-.819-1.4-.821-.22-.002-.13.181.2.405m184.5.214c-.715.312-1.3.66-1.3.773 0 .208 2.806-.88 3.146-1.22.34-.34-.526-.13-1.846.447m-3.6 1.6c-.715.312-1.3.66-1.3.773 0 .208 2.806-.88 3.146-1.22.34-.34-.526-.13-1.846.447M219.6 333.2c-.824.264-.859.326-.2.354.44.019 1.07-.141 1.4-.354.701-.453.214-.453-1.2 0m-2.8.8c-.824.264-.859.326-.2.354.44.019 1.07-.141 1.4-.354.701-.453.214-.453-1.2 0m-115.6.564c0 .186 5.953 2.025 7.8 2.41.882.184 1.041.143.6-.156-.33-.223-.872-.409-1.205-.412-.333-.003-2.023-.456-3.755-1.006-3.37-1.07-3.44-1.086-3.44-.836m112.8.236c-.824.264-.859.326-.2.354.44.019 1.07-.141 1.4-.354.701-.453.214-.453-1.2 0m-4.6 1.2c-1.019.438.032.438 1.4 0 .804-.257.843-.323.2-.332-.44-.006-1.16.143-1.6.332m-3.2.8c-1.019.438.032.438 1.4 0 .804-.257.843-.323.2-.332-.44-.006-1.16.143-1.6.332m-95 .8c1.368.438 2.419.438 1.4 0-.44-.189-1.16-.338-1.6-.332-.643.009-.604.075.2.332m91.6.006c-.422.276-.185.317.8.136 1.725-.317 2.051-.544.767-.536-.532.003-1.237.183-1.567.4m-88.4.794c1.368.438 2.419.438 1.4 0-.44-.189-1.16-.338-1.6-.332-.643.009-.604.075.2.332m84.6.019c-.558.252-.315.288.8.119.88-.134 1.675-.31 1.767-.391.343-.303-1.799-.076-2.567.272m-82.167.528c.092.081.887.257 1.767.391 1.115.169 1.358.133.8-.119-.768-.348-2.91-.575-2.567-.272m78.167.263c-.534.237-.202.276 1 .117.99-.131 1.875-.303 1.967-.383.347-.301-2.203-.072-2.967.266m-74.167.537c.092.081.887.267 1.767.415 1.146.192 1.43.152 1-.141-.54-.368-3.168-.628-2.767-.274m69.767.263c-.534.237-.202.276 1 .117.99-.131 1.875-.303 1.967-.383.347-.301-2.203-.072-2.967.266m-65.367.534c.092.08.977.252 1.967.383 1.202.159 1.534.12 1-.117-.764-.338-3.314-.567-2.967-.266m60.167.276c-.539.245-.146.285 1.2.121 1.1-.134 2.075-.31 2.167-.392.35-.313-2.606-.075-3.367.271m-53.6.803c2.137.442 3.604.427 2.2-.023-.55-.176-1.63-.317-2.4-.314l-1.4.006 1.6.331m47.6-.009c-.522.234-.037.274 1.4.118 1.21-.132 2.275-.306 2.367-.386.354-.31-3.01-.071-3.767.268m-42.567.534c.092.081 1.517.251 3.167.377 1.846.141 2.615.1 2-.108-.974-.328-5.499-.564-5.167-.269m34.167.274c-.736.2.038.241 2 .104 1.76-.123 3.275-.291 3.367-.375.312-.283-4.162-.058-5.367.271m-19.1.677c2.475.07 6.525.07 9 0 2.475-.071.45-.128-4.5-.128s-6.975.057-4.5.128" />
    <path fill="#8c8c8c"
      d="M329.1 57.089c.715.089 1.885.089 2.6 0 .715-.088.13-.161-1.3-.161-1.43 0-2.015.073-1.3.161m8.193 4.511c0 .77.082 1.085.183.7.1-.385.1-1.015 0-1.4-.101-.385-.183-.07-.183.7m-1.2 11.6c0 .77.082 1.085.183.7.1-.385.1-1.015 0-1.4-.101-.385-.183-.07-.183.7m37.2 87.6c0 .77.082 1.085.183.7.1-.385.1-1.015 0-1.4-.101-.385-.183-.07-.183.7M29.6 290.125c0 .069.585.654 1.3 1.3l1.3 1.175-1.175-1.3c-1.095-1.212-1.425-1.484-1.425-1.175m116.1 52.951c.385.1 1.015.1 1.4 0 .385-.101.07-.183-.7-.183s-1.085.082-.7.183m20 0c.385.1 1.015.1 1.4 0 .385-.101.07-.183-.7-.183s-1.085.082-.7.183" />
  </g>
</svg>